<?xml version="1.0" encoding="UTF-8"?> <svg xmlns="http://www.w3.org/2000/svg" id="Layer_2" viewBox="0 0 749.1 125.7"><defs><style>.cls-1{fill:#4d4df4;}</style></defs><g id="LOGO"><polygon points="0 125.7 20.92 125.7 20.92 74.73 83.35 74.73 83.35 56.49 20.92 56.49 20.92 18.74 89.97 18.74 89.97 .5 0 .5 0 125.7"></polygon><path d="m173.49.5h-20.92v110.18c0,4.53,1.37,8.17,4.11,10.91,2.74,2.74,6.5,4.11,11.27,4.11h73.51v-18.24h-67.97V.5Z"></path><polygon points="320.26 58.1 286.28 .5 263.56 .5 309.89 77.23 309.89 125.7 330.64 125.7 330.64 77.23 376.96 .5 354.25 .5 320.26 58.1"></polygon><path d="m523.61,93.33c-1.67-5.61-3.67-10.16-5.99-13.68-1.91-2.88-4.44-5.24-7.35-7.28,11.33-6.78,18.94-19.13,18.94-33.29v-.02c0-21.43-17.37-38.8-38.8-38.8l-59.62.21-.02,5.33c-.03,8.82,7.12,15.99,15.94,15.99h43.71s.01.02.01.02c9.52.01,17.23,7.73,17.23,17.25s-7.65,17.16-17.11,17.23c-.05,0-.09.04-.14.04,0,0,0,0,0,0-9.56,0-28.98,0-43.7-.01-8.83,0-15.97,7.17-15.94,15.99l.02,5.25v48.13h20.92v-47.58h32.19c4.3,0,8.05,1.43,11.27,4.3,3.22,2.86,5.6,6.98,7.15,12.34l9.66,30.94h21.64l-10.02-32.37Z"></path><circle class="cls-1" cx="686.38" cy="16.08" r="16.08" transform="translate(189.67 490.05) rotate(-45)"></circle><circle class="cls-1" cx="639.73" cy="16.08" r="16.08" transform="translate(176.01 457.07) rotate(-45)"></circle><circle cx="639.73" cy="109.37" r="16.08" transform="translate(110.04 484.39) rotate(-45)"></circle><circle class="cls-1" cx="639.73" cy="62.72" r="16.08" transform="translate(143.02 470.73) rotate(-45)"></circle><path d="m743.18,75.28c.54-.53,1.38-1.36,1.64-1.64,2.66-2.87,4.29-6.69,4.29-10.91,0-4.73-2.04-8.98-5.29-11.92l-.03-.02s0,0,0,0c0,0,0,0,0,0,0,0,0,0,0,0-.37-.36-.78-.77-1.15-1.15-2.02-2.08-5.44-6.02-5.44-10.22,0-4.61,4.13-8.96,5.99-10.77.54-.53,1.38-1.36,1.64-1.64,2.66-2.87,4.29-6.69,4.29-10.91C749.1,7.2,741.91,0,733.03,0s-16.08,7.2-16.08,16.08c0,4.23,1.64,8.07,4.31,10.94.25.27,1.32,1.29,2.17,2.16,2.02,2.08,5.44,6.02,5.44,10.22,0,4.61-4.13,8.96-5.99,10.77-.23.22-.51.5-.78.77h0s-.01,0-.02.01c-3.15,2.94-5.13,7.13-5.13,11.78,0,4.23,1.64,8.07,4.31,10.94.25.27,1.32,1.29,2.17,2.16,2.02,2.08,5.44,6.02,5.44,10.22,0,4.61-4.13,8.96-5.99,10.77-.54.53-1.38,1.36-1.64,1.64-2.66,2.87-4.29,6.69-4.29,10.91,0,8.88,7.2,16.08,16.08,16.08s16.08-7.2,16.08-16.08c0-4.23-1.64-8.07-4.31-10.94-.25-.27-1.32-1.29-2.17-2.16-2.02-2.08-5.44-6.02-5.44-10.22,0-4.61,4.13-8.96,5.99-10.77Z"></path><path d="m676.78,96.26c2.02-2.08,5.44-6.02,5.44-10.22,0-4.61-4.13-8.96-5.99-10.77-.54-.53-1.38-1.36-1.64-1.64-2.66-2.87-4.29-6.69-4.29-10.91,0-8.88,7.2-16.08,16.08-16.08s16.08,7.2,16.08,16.08c0,4.23-1.64,8.07-4.31,10.94-.25.27-1.32,1.29-2.17,2.16-2.02,2.08-5.44,6.02-5.44,10.22,0,4.61,4.13,8.96,5.99,10.77.54.53,1.38,1.36,1.64,1.64,2.66,2.87,4.29,6.69,4.29,10.91,0,8.88-7.2,16.08-16.08,16.08-8.88,0-16.08-7.2-16.08-16.08,0-4.23,1.64-8.07,4.31-10.94.25-.27,1.32-1.29,2.17-2.16Z"></path></g></svg> 