<?xml version="1.0" encoding="UTF-8"?> <svg xmlns="http://www.w3.org/2000/svg" id="Layer_2" viewBox="0 0 400 400"><defs><style>.cls-1{fill:#4d4df4;}</style></defs><g id="Layer_1-2"><circle class="cls-1" cx="200" cy="51.26" r="51.26" transform="translate(22.33 156.44) rotate(-45)"></circle><circle class="cls-1" cx="51.26" cy="51.26" r="51.26" transform="translate(-21.23 51.26) rotate(-45)"></circle><circle cx="51.26" cy="348.74" r="51.26" transform="translate(-231.58 138.39) rotate(-45)"></circle><circle class="cls-1" cx="51.26" cy="200" r="51.26" transform="translate(-126.41 94.83) rotate(-45)"></circle><path d="m381.11,240.03c1.73-1.68,4.39-4.32,5.22-5.22,8.47-9.14,13.67-21.35,13.67-34.79,0-15.08-6.5-28.64-16.86-38.02l-.08-.07s0,0,0,0c0,0-.01-.01-.02-.02,0,0-.02-.02-.02-.02-1.17-1.16-2.48-2.46-3.66-3.67-6.44-6.62-17.35-19.2-17.35-32.58,0-14.7,13.17-28.56,19.11-34.34,1.73-1.68,4.39-4.32,5.22-5.22,8.47-9.14,13.67-21.35,13.67-34.79C400,22.97,377.05,0,348.74,0s-51.26,22.96-51.26,51.29c0,13.49,5.23,25.72,13.74,34.87.8.86,4.21,4.13,6.9,6.9,6.44,6.62,17.35,19.2,17.35,32.58,0,14.7-13.17,28.56-19.11,34.34-.73.71-1.63,1.6-2.49,2.45h0s-.04.03-.06.05c-10.06,9.36-16.35,22.72-16.35,37.55,0,13.49,5.23,25.72,13.74,34.87.8.86,4.21,4.13,6.9,6.9,6.44,6.62,17.35,19.2,17.35,32.58,0,14.7-13.17,28.56-19.11,34.34-1.73,1.68-4.39,4.32-5.22,5.22-8.47,9.14-13.67,21.35-13.67,34.79,0,28.32,22.95,51.29,51.26,51.29s51.26-22.96,51.26-51.29c0-13.49-5.23-25.72-13.74-34.87-.8-.86-4.21-4.13-6.9-6.9-6.44-6.62-17.35-19.2-17.35-32.58,0-14.7,13.17-28.56,19.11-34.34Z"></path><path d="m169.38,306.94c6.44-6.62,17.35-19.2,17.35-32.58,0-14.7-13.17-28.56-19.11-34.34-1.73-1.68-4.39-4.32-5.22-5.22-8.47-9.14-13.67-21.35-13.67-34.79,0-28.32,22.95-51.29,51.26-51.29,28.31,0,51.26,22.96,51.26,51.29,0,13.49-5.23,25.72-13.74,34.87-.8.86-4.21,4.13-6.9,6.9-6.44,6.62-17.35,19.2-17.35,32.58,0,14.7,13.17,28.56,19.11,34.34,1.73,1.68,4.39,4.32,5.22,5.22,8.47,9.14,13.67,21.35,13.67,34.79,0,28.32-22.95,51.29-51.26,51.29-28.31,0-51.26-22.96-51.26-51.29,0-13.49,5.23-25.72,13.74-34.87.8-.86,4.21-4.13,6.9-6.9Z"></path></g></svg> 